#!OML:ASF E:\acrobat2\Project_11_07_03\Capture day 1\Session 1\Acrobat.ASF
:FULLY-SPECIFIED
:DEGREES
225
root 10.577 20.3652 13.4965 266.568 50.3546 91.1558
lowerback 60.4033 -5.76852 -2.05124
upperback 14.7524 -7.69336 3.75682
thorax -4.05323 -3.33794 8.1189
lowerneck 2.39814 -14.6235 -6.40437
upperneck 2.16377 -20.1523 -4.17482
head 0.456331 -10.2663 -0.282451
rclavicle -6.36111e-015 7.31528e-014
rhumerus -16.2331 42.5769 -77.748
rradius 111.515
rwrist -47.3255
rhand -15.7682 -37.8174
rfingers 7.12502
rthumb 10.4238 -67.539
lclavicle -6.36111e-015 7.31528e-014
lhumerus -38.1265 -18.2637 91.4701
lradius 57.6589
lwrist 51.331
lhand 5.0149 -27.9183
lfingers 7.12502
lthumb 30.3842 -0.401238
rfemur -67.9072 -11.0762 -15.6198
rtibia 83.8664
rfoot 144.661 34.6587
rtoes 51.123
lfemur 144.449 154.894 209.534
ltibia 84.018
lfoot 8.85513 20.1855
ltoes -19.869
226
root 10.5747 20.1886 13.6734 265.505 40.661 93.4003
lowerback 63.4481 -5.82114 -1.93909
upperback 14.1948 -7.87175 4.63094
thorax -4.59132 -3.59999 9.21775
lowerneck 2.70201 -13.3066 -6.98159
upperneck 3.04937 -18.4203 -4.94795
head 0.644044 -9.45328 -0.429537
rclavicle -8.26944e-014 4.13472e-014
rhumerus -14.2054 41.7885 -75.1248
rradius 110.702
rwrist -51.5412
rhand -8.00579 -40.5215
rfingers 7.12502
rthumb 17.9033 -69.7174
lclavicle -8.26944e-014 4.13472e-014
lhumerus -41.1467 -17.0089 93.35
lradius 58.7272
lwrist 58.6066
lhand 3.29985 -26.3052
lfingers 7.12502
lthumb 28.747 1.50177
rfemur -62.1677 -9.00419 -19.4423
rtibia 89.5001
rfoot 82.7936 59.9508
rtoes 60.7917
lfemur 152.58 157.032 209.218
ltibia 74.9705
lfoot -6.87999 -10.6142
ltoes 23.0849
227
root 10.5569 20.0251 13.8758 264.445 31.2551 95.2204
lowerback 64.8367 -6.53675 -0.774489
upperback 14.142 -8.27082 4.82737
thorax -4.61684 -3.90133 9.14319
lowerneck 1.38048 -12.0194 -6.10038
upperneck 3.98716 -16.4999 -5.79221
head 0.993108 -8.53942 -0.905207
rclavicle -5.24792e-014 4.45278e-014
rhumerus -9.16706 37.6835 -71.9576
rradius 106.033
rwrist -61.2175
rhand -5.01456 -39.9309
rfingers 7.12502
rthumb 20.7794 -68.8383
lclavicle -5.24792e-014 4.45278e-014
lhumerus -41.9493 -12.8034 94.4982
lradius 55.7845
lwrist 59.5613
lhand 0.714795 -27.1359
lfingers 7.12502
lthumb 26.2748 1.06468
rfemur -57.0796 -8.10694 -21.2404
rtibia 85.8276
rfoot 22.5681 36.5106
rtoes 69.3443
lfemur 155.243 156.246 209.759
ltibia 73.7198
lfoot 8.81066 0.424594
ltoes 43.9368
228
root 10.5382 19.8364 14.1029 262.715 22.4632 96.5689
lowerback 67.1253 -7.29156 0.325423
upperback 13.4455 -8.55268 5.09416
thorax -5.32146 -4.13461 9.21175
lowerneck 1.12327 -11.1481 -4.58032
upperneck 4.39647 -15.2681 -7.02977
head 0.952695 -7.93592 -1.49659
rclavicle 1.82882e-014 -7.63333e-014
rhumerus -7.07544 33.9749 -71.5837
rradius 100.673
rwrist -70.7568
rhand -3.23149 -39.1048
rfingers 7.12502
rthumb 22.4918 -67.8149
lclavicle 1.82882e-014 -7.63333e-014
lhumerus -42.4069 -8.44754 95.4005
lradius 52.0862
lwrist 60.3974
lhand 0.710383 -24.3988
lfingers 7.12502
lthumb 26.2706 3.8024
rfemur -51.7105 -6.76422 -23.1844
rtibia 79.0013
rfoot -26.4341 5.87282
rtoes 69.2502
lfemur 157.66 155.44 208.617
ltibia 74.4318
lfoot 14.1746 1.52948
ltoes 41.4961
229
root 10.495 19.5899 14.4199 262.541 14.8579 98.8275
lowerback 66.9067 -6.64303 0.40796
upperback 13.3787 -8.06215 5.58877
thorax -5.42693 -4.12682 9.56465
lowerneck -0.663209 -10.5943 -3.29126
upperneck 5.41618 -14.3639 -8.37965
head 1.40264 -7.56115 -2.26379
rclavicle -6.50026e-014 7.31528e-014
rhumerus -8.86875 31.3721 -70.0118
rradius 97.1744
rwrist -81.6464
rhand 2.69843 -37.7592
rfingers 7.12502
rthumb 28.1723 -65.6623
lclavicle -6.50026e-014 7.31528e-014
lhumerus -41.5571 -3.31911 95.176
lradius 48.57
lwrist 63.5985
lhand 1.04413 -22.8488
lfingers 7.12502
lthumb 26.5901 5.30439
rfemur -47.4309 -5.16793 -26.035
rtibia 75.1321
rfoot -36.0063 -2.60979
rtoes 52.0822
lfemur 159.741 153.389 207.084
ltibia 73.7468
lfoot 12.1544 1.82407
ltoes 44.2426
230
root 10.3863 19.3436 14.9857 267.598 8.32132 102.947
lowerback 56.4382 -4.98928 -0.0309539
upperback 15.7133 -7.39352 5.48613
thorax -2.80227 -4.10743 8.91941
lowerneck -1.53881 -9.83368 -2.70302
upperneck 5.13794 -13.2976 -8.74494
head 1.43176 -7.03826 -2.50788
rclavicle -1.11319e-014 -7.31528e-014
rhumerus -13.5788 28.5603 -70.9854
rradius 100.288
rwrist -74.8851
rhand 3.44863 -41.3383
rfingers 7.12502
rthumb 28.8892 -69.121
lclavicle -1.11319e-014 -7.31528e-014
lhumerus -40.7189 0.758164 94.2014
lradius 45.8508
lwrist 68.3053
lhand -0.676842 -22.3558
lfingers 7.12502
lthumb 24.9419 6.03654
rfemur -52.7568 -6.06009 -29.6638
rtibia 72.4191
rfoot -37.8498 -4.74709
rtoes 62.3254
lfemur 157.442 145.051 204.859
ltibia 73.4995
lfoot 4.61235 -1.79647
ltoes 28.3959
231
root 10.3573 18.912 15.5571 271.479 -0.213098 106.992
lowerback 48.0673 -3.39715 0.315195
upperback 16.8453 -5.76193 6.14506
thorax -0.900629 -3.52059 8.49972
lowerneck -1.51081 -8.97556 -1.89725
upperneck 4.33651 -12.1906 -9.4295
head 1.11543 -6.46461 -2.8064
rclavicle 1.74931e-014 2.8625e-014
rhumerus -10.3498 25.2426 -69.5208
rradius 94.5162
rwrist -71.1564
rhand 8.55969 -41.9274
rfingers 7.12502
rthumb 33.759 -68.7643
lclavicle 1.74931e-014 2.8625e-014
lhumerus -41.385 3.56004 92.1496
lradius 45.8589
lwrist 74.4537
lhand -3.62968 -16.9199
lfingers 7.12502
lthumb 22.1095 11.836
rfemur -57.8287 -5.08709 -31.3208
rtibia 71.1462
rfoot -30.3366 -6.17161
rtoes 66.7688
lfemur 148.839 141.39 196.801
ltibia 89.8746
lfoot -12.8641 -13.536
ltoes 22.375
232
root 10.3274 18.4513 16.0144 270.798 -9.19034 108.675
lowerback 45.0077 -3.89152 3.36433
upperback 17.7412 -5.40819 6.54981
thorax -0.459896 -3.24824 7.26625
lowerneck -2.80541 -8.14854 -0.420758
upperneck 5.23316 -10.9754 -10.9901
head 1.51884 -5.9344 -3.68881
rclavicle 6.67916e-014 5.08889e-014
rhumerus -11.6946 21.4839 -70.2165
rradius 92.1865
rwrist -69.1602
rhand 12.757 -43.5225
rfingers 7.12502
rthumb 37.7363 -69.393
lclavicle 6.67916e-014 5.08889e-014
lhumerus -40.6156 3.33934 90.5992
lradius 45.9879
lwrist 71.1301
lhand -15.158 -4.32055
lfingers 7.12502
lthumb 11.0124 25.3706
rfemur -58.4624 -3.43353 -30.9424
rtibia 70.0472
rfoot -26.3054 3.42607
rtoes 67.8709
lfemur 143.544 141.423 195.77
ltibia 87.421
lfoot -13.1941 -13.9378
ltoes 26.9575
233
root 10.2875 17.9537 16.325 265.315 -17.0452 109.297
lowerback 51.2342 -5.39511 6.088
upperback 15.8342 -5.54999 6.93769
thorax -2.47771 -3.38742 6.81947
lowerneck -1.29155 -6.88695 -0.379657
upperneck 4.35656 -9.33092 -10.8783
head 1.06674 -5.02747 -3.53199
rclavicle 9.54166e-015 1.90833e-014
rhumerus -12.931 19.7495 -69.8434
rradius 89.7382
rwrist -69.4156
rhand 15.4282 -43.6124
rfingers 7.12502
rthumb 40.2546 -68.7611
lclavicle 9.54166e-015 1.90833e-014
lhumerus -38.999 2.8377 88.131
lradius 44.1412
lwrist 67.0622
lhand -20.1832 -4.4772
lfingers 7.12502
lthumb 6.16291 25.4132
rfemur -49.9757 3.47989 -31.1471
rtibia 64.1279
rfoot -22.2437 7.96706
rtoes 69.939
lfemur 148.007 145.57 196.958
ltibia 80.2451
lfoot -15.4703 -12.2521
ltoes 9.88546
234
root 10.2644 17.3799 16.7077 261.209 -24.1825 110.911
lowerback 53.6564 -5.88571 7.21531
upperback 15.1018 -5.45928 7.38131
thorax -3.47959 -3.49617 6.9639
lowerneck -0.722159 -5.55201 -0.358497
upperneck 4.81989 -7.44242 -10.6603
head 1.23431 -4.0613 -3.45453
rclavicle 4.45278e-014 2.54444e-014
rhumerus -14.0333 19.7675 -69.1254
rradius 86.943
rwrist -68.479
rhand 13.4026 -44.1486
rfingers 7.12502
rthumb 38.3459 -69.8528
lclavicle 4.45278e-014 2.54444e-014
lhumerus -36.3902 2.40885 84.4374
lradius 41.5571
lwrist 63.3782
lhand -24.3402 1.19
lfingers 7.12502
lthumb 2.14883 31.1589
rfemur -41.2563 11.7192 -31.5489
rtibia 54.2919
rfoot -21.6576 14.2891
rtoes 71.4235
lfemur 150.388 147.616 197.048
ltibia 74.8279
lfoot -19.3929 -5.16557
ltoes -14.0172
